<?xml version="1.0" encoding="utf-8"?>
<!-- Generator: Adobe Illustrator 16.0.0, SVG Export Plug-In . SVG Version: 6.00 Build 0)  -->
<!DOCTYPE svg PUBLIC "-//W3C//DTD SVG 1.1//EN" "http://www.w3.org/Graphics/SVG/1.1/DTD/svg11.dtd">
<svg version="1.1" id="Layer_1" xmlns="http://www.w3.org/2000/svg" xmlns:xlink="http://www.w3.org/1999/xlink" x="0px" y="0px"
	 width="25px" height="25px" viewBox="0 0 25 25" enable-background="new 0 0 25 25" xml:space="preserve">
<g>
	<path fill="#000000
" d="M15.715,9.195c-0.31,0-0.562,0.251-0.562,0.562V20.38c0,0.31,0.252,0.562,0.562,0.562
		c0.311,0,0.563-0.252,0.563-0.562V9.757C16.277,9.446,16.025,9.195,15.715,9.195z"/>
	<path fill="#000000
" d="M9.083,9.195c-0.311,0-0.562,0.251-0.562,0.562V20.38c0,0.31,0.251,0.562,0.562,0.562
		s0.562-0.252,0.562-0.562V9.757C9.645,9.446,9.394,9.195,9.083,9.195z"/>
	<path fill="#000000
" d="M4.25,7.645v13.848c0,0.818,0.3,1.587,0.824,2.139c0.522,0.553,1.248,0.867,2.008,0.868h10.635
		c0.76-0.001,1.486-0.315,2.008-0.868c0.524-0.552,0.824-1.32,0.824-2.139V7.645c1.043-0.277,1.718-1.284,1.578-2.353
		s-1.05-1.869-2.129-1.869H17.12V2.72c0.004-0.591-0.229-1.158-0.648-1.576c-0.418-0.417-0.986-0.649-1.577-0.645H9.904
		C9.313,0.495,8.745,0.727,8.327,1.144C7.908,1.562,7.675,2.129,7.678,2.72v0.703H4.8c-1.079,0-1.989,0.8-2.129,1.869
		S3.207,7.368,4.25,7.645z M17.717,23.375H7.082c-0.961,0-1.708-0.825-1.708-1.883V7.694h14.051v13.798
		C19.425,22.55,18.678,23.375,17.717,23.375z M8.802,2.72C8.798,2.427,8.914,2.145,9.121,1.938s0.49-0.32,0.783-0.315h4.991
		c0.293-0.005,0.575,0.108,0.783,0.315C15.885,2.145,16,2.427,15.996,2.72v0.703H8.802V2.72z M4.8,4.546h15.198
		c0.559,0,1.012,0.453,1.012,1.012c0,0.559-0.453,1.012-1.012,1.012H4.8c-0.559,0-1.012-0.453-1.012-1.012
		C3.789,4.999,4.241,4.546,4.8,4.546z"/>
	<path fill="#000000
" d="M12.399,9.195c-0.311,0-0.563,0.251-0.563,0.562V20.38c0,0.31,0.252,0.562,0.563,0.562
		c0.31,0,0.562-0.252,0.562-0.562V9.757C12.961,9.446,12.709,9.195,12.399,9.195z"/>
</g>
</svg>
