<?xml version="1.0" encoding="utf-8"?>
<!-- Generator: Adobe Illustrator 16.0.0, SVG Export Plug-In . SVG Version: 6.00 Build 0)  -->
<!DOCTYPE svg PUBLIC "-//W3C//DTD SVG 1.1//EN" "http://www.w3.org/Graphics/SVG/1.1/DTD/svg11.dtd">
<svg version="1.1" id="Layer_1" xmlns="http://www.w3.org/2000/svg" xmlns:xlink="http://www.w3.org/1999/xlink" x="0px" y="0px"
	 width="25px" height="25px" viewBox="61.5 -0.5 25 25" enable-background="new 61.5 -0.5 25 25" xml:space="preserve">
<g>
	<g>
		<path fill="#000000" d="M85.361,3.895L82.088,0.62c-0.824-0.826-2.259-0.827-3.086,0.001L64.34,15.427
			c-0.065,0.065-0.112,0.146-0.138,0.235l-2.182,7.643c-0.054,0.189-0.001,0.395,0.139,0.535c0.104,0.104,0.243,0.16,0.385,0.16
			c0.05,0,0.101-0.007,0.15-0.021l7.636-2.184c0.088-0.025,0.169-0.072,0.234-0.137L85.361,6.983C85.773,6.57,86,6.022,86,5.439
			C86,4.855,85.773,4.308,85.361,3.895z M76.625,4.589l2.008,2.008L68.149,17.079l-0.752-1.505
			c-0.092-0.186-0.281-0.302-0.488-0.302h-0.874L76.625,4.589z M63.34,22.66l0.71-2.486l1.776,1.775L63.34,22.66z M69.636,20.861
			l-2.609,0.746l-2.634-2.635l0.746-2.609h1.433l0.94,1.881c0.053,0.105,0.138,0.191,0.244,0.244l1.88,0.939V20.861L69.636,20.861z
			 M70.728,19.965v-0.874c0-0.206-0.117-0.396-0.302-0.487l-1.505-0.753L79.403,7.368l2.008,2.008L70.728,19.965z M84.592,6.224
			l-2.406,2.384l-4.793-4.794l2.382-2.403c0.412-0.413,1.13-0.413,1.542,0l3.273,3.272c0.205,0.207,0.319,0.48,0.319,0.771
			S84.795,6.02,84.592,6.224z"/>
	</g>
</g>
</svg>
