<?xml version="1.0" encoding="utf-8"?>
<!-- Generator: Adobe Illustrator 16.0.0, SVG Export Plug-In . SVG Version: 6.00 Build 0)  -->
<!DOCTYPE svg PUBLIC "-//W3C//DTD SVG 1.1//EN" "http://www.w3.org/Graphics/SVG/1.1/DTD/svg11.dtd">
<svg version="1.1" id="Layer_1" xmlns="http://www.w3.org/2000/svg" xmlns:xlink="http://www.w3.org/1999/xlink" x="0px" y="0px"
	 width="25px" height="25px" viewBox="61.5 -0.5 25 25" enable-background="new 61.5 -0.5 25 25" xml:space="preserve">
<path fill="#000" d="M82.88,13.334c0.747-0.586,1.254-1.493,1.254-2.533c0-1.76-1.44-3.201-3.2-3.201
	c-1.387,0-2.587,0.88-3.015,2.134C77.974,9.466,78,9.2,78,8.934c0-2.214-1.786-4.001-4-4.001c-2.213,0-4,1.787-4,4.001
	c0,0.267,0.026,0.532,0.08,0.8C69.653,8.479,68.453,7.6,67.066,7.6c-1.76,0-3.2,1.441-3.2,3.201c0,1.013,0.48,1.947,1.253,2.533
	C63.28,14.08,62,15.895,62,18.001v0.532c0,0.294,0.24,0.534,0.533,0.534h22.934c0.293,0,0.533-0.24,0.533-0.534v-0.532
	C86,15.895,84.721,14.08,82.88,13.334z M80.934,8.667c1.173,0,2.134,0.96,2.134,2.134c0,1.172-0.961,2.134-2.134,2.134
	c-1.174,0-2.133-0.962-2.133-2.134C78.801,9.627,79.76,8.667,80.934,8.667z M78.987,13.334c-0.161,0.053-0.293,0.133-0.454,0.212
	c-0.614-0.611-1.36-1.093-2.188-1.358c0.668-0.48,1.175-1.174,1.441-1.975c-0.027,0.187-0.055,0.374-0.055,0.588
	C77.732,11.813,78.214,12.748,78.987,13.334z M74,6c1.627,0,2.934,1.307,2.934,2.934c0,1.626-1.307,2.933-2.934,2.933
	c-1.626,0-2.934-1.307-2.934-2.933C71.066,7.307,72.374,6,74,6z M70.267,10.801c0-0.214-0.026-0.401-0.054-0.614
	c0.267,0.801,0.774,1.493,1.44,1.974c-0.827,0.293-1.573,0.747-2.187,1.36c-0.133-0.081-0.293-0.161-0.453-0.213
	C69.787,12.748,70.267,11.813,70.267,10.801z M64.933,10.801c0-1.174,0.96-2.134,2.133-2.134s2.134,0.96,2.134,2.134
	c0,1.172-0.96,2.134-2.134,2.134S64.933,11.973,64.933,10.801z M67.867,17.468v0.533h-4.8c0-2.214,1.787-4.001,4-4.001
	c0.613,0,1.2,0.135,1.733,0.4C68.213,15.28,67.867,16.347,67.867,17.468z M79.067,18.001H68.933v-0.533
	c0-2.508,2.027-4.533,4.534-4.533h1.066c2.507,0,4.534,2.025,4.534,4.533V18.001z M80.133,18.001v-0.533
	c0-1.121-0.346-2.188-0.933-3.067c0.533-0.24,1.094-0.4,1.733-0.4c2.214,0,4,1.787,4,4.001H80.133z"/>
</svg>
